PathFileType	4	(X/Y/Z)	C:\Users\86182\Documents\cortex\Trimmed_M4_H13.trc
DataRate	CameraRate	NumFrames	NumMarkers	Units	OrigDataRate	OrigDataStartFrame	OrigNumFrames
100.00	100.00	       72	2	mm	100.00	1	       901
Frame#	Time	gripper			box			
		X1	Y1	Z1	X2	Y2	Z2	

1	0.000	277.13226	150.09789	192.41084	280.37778	146.99297	57.45833	
2	0.010	277.12802	150.10075	192.41040	280.37750	146.99274	57.45844	
3	0.020	277.12387	150.10384	192.41010	280.37662	146.99202	57.45878	
4	0.030	277.12067	150.10661	192.40999	280.37543	146.99104	57.45925	
5	0.040	277.11896	150.10901	192.41006	280.37433	146.99014	57.45969	
6	0.050	277.11884	150.11102	192.41029	280.37350	146.98947	57.46002	
7	0.060	277.11993	150.11246	192.41045	280.37271	146.98883	57.46032	
8	0.070	277.12158	150.11292	192.41000	280.37170	146.98801	57.46072	
9	0.080	277.12286	150.11227	192.40848	280.37048	146.98701	57.46121	
10	0.090	277.12302	150.11081	192.40614	280.36926	146.98602	57.46170	
11	0.100	277.12180	150.10905	192.40405	280.36832	146.98524	57.46209	
12	0.110	277.11972	150.10751	192.40306	280.36795	146.98492	57.46224	
13	0.120	277.11771	150.10634	192.40329	280.36844	146.98532	57.46207	
14	0.130	277.11646	150.10547	192.40417	280.36969	146.98634	57.46159	
15	0.140	277.11618	150.10483	192.40523	280.37131	146.98763	57.46098	
16	0.150	277.11649	150.10429	192.40620	280.37283	146.98886	57.46039	
17	0.160	277.11688	150.10376	192.40697	280.37421	146.98999	57.45984	
18	0.170	277.11710	150.10344	192.40732	280.37552	146.99107	57.45930	
19	0.180	277.11737	150.10381	192.40717	280.37659	146.99197	57.45882	
20	0.190	277.11810	150.10490	192.40634	280.37711	146.99248	57.45848	
21	0.200	277.11963	150.10614	192.40454	280.37714	146.99260	57.45827	
22	0.210	277.12183	150.10680	192.40161	280.37711	146.99274	57.45799	
23	0.220	277.12433	150.10660	192.39781	280.37775	146.99347	57.45737	
24	0.230	277.12662	150.10576	192.39380	280.37930	146.99496	57.45636	
25	0.240	277.12823	150.10497	192.39023	280.38135	146.99678	57.45524	
26	0.250	277.12924	150.10522	192.38741	280.38309	146.99828	57.45441	
27	0.260	277.12994	150.10725	192.38538	280.38419	146.99911	57.45410	
28	0.270	277.13055	150.11098	192.38422	280.38492	146.99953	57.45415	
29	0.280	277.13080	150.11575	192.38419	280.38550	146.99980	57.45430	
30	0.290	277.13010	150.12083	192.38567	280.38596	146.99997	57.45448	
31	0.300	277.12817	150.12547	192.38832	280.38593	146.99977	57.45478	
32	0.310	277.12531	150.12872	192.39104	280.38513	146.99902	57.45530	
33	0.320	277.12247	150.12970	192.39256	280.38379	146.99785	57.45596	
34	0.330	277.12082	150.12827	192.39253	280.38235	146.99663	57.45660	
35	0.340	277.12082	150.12494	192.39174	280.38129	146.99576	57.45705	
36	0.350	277.12216	150.12048	192.39128	280.38074	146.99532	57.45728	
37	0.360	277.12460	150.11560	192.39154	280.38062	146.99519	57.45732	
38	0.370	277.12796	150.11089	192.39207	280.38083	146.99541	57.45721	
39	0.380	277.13159	150.10674	192.39249	280.38147	146.99593	57.45694	
40	0.390	277.13440	150.10336	192.39282	280.38254	146.99680	57.45650	
41	0.400	277.13531	150.10089	192.39330	280.38385	146.99791	57.45593	
42	0.410	277.13419	150.09938	192.39395	280.38538	146.99918	57.45527	
43	0.420	277.13168	150.09891	192.39485	280.38705	147.00060	57.45452	
44	0.430	277.12903	150.09976	192.39633	280.38885	147.00214	57.45368	
45	0.440	277.12744	150.10223	192.39870	280.39069	147.00371	57.45281	
46	0.450	277.12766	150.10619	192.40186	280.39218	147.00502	57.45206	
47	0.460	277.12955	150.11072	192.40524	280.39285	147.00563	57.45167	
48	0.470	277.13217	150.11456	192.40828	280.39227	147.00519	57.45185	
49	0.480	277.13406	150.11655	192.41075	280.39038	147.00360	57.45266	
50	0.490	277.13419	150.11609	192.41289	280.38739	147.00110	57.45397	
51	0.500	277.13254	150.11345	192.41498	280.38354	146.99786	57.45566	
52	0.510	277.12973	150.10953	192.41690	280.37897	146.99406	57.45762	
53	0.520	277.12665	150.10555	192.41823	280.37415	146.99005	57.45966	
54	0.530	277.12390	150.10251	192.41870	280.36987	146.98651	57.46144	
55	0.540	277.12213	150.10091	192.41821	280.36691	146.98407	57.46266	
56	0.550	277.12140	150.10066	192.41687	280.36575	146.98312	57.46312	
57	0.560	277.12146	150.10138	192.41495	280.36670	146.98392	57.46272	
58	0.570	277.12189	150.10266	192.41277	280.36945	146.98619	57.46155	
59	0.580	277.12256	150.10422	192.41051	280.37329	146.98940	57.45991	
60	0.590	277.12357	150.10588	192.40851	280.37753	146.99294	57.45808	
61	0.600	277.12488	150.10776	192.40724	280.38165	146.99638	57.45628	
62	0.610	277.12628	150.11014	192.40714	280.38525	146.99942	57.45472	
63	0.620	277.12729	150.11322	192.40839	280.38809	147.00177	57.45354	
64	0.630	277.12778	150.11667	192.41101	280.38989	147.00322	57.45288	
65	0.640	277.12784	150.11966	192.41451	280.39041	147.00362	57.45280	
66	0.650	277.12784	150.12152	192.41800	280.38959	147.00288	57.45328	
67	0.660	277.12802	150.12204	192.42064	280.38763	147.00128	57.45418	
68	0.670	277.12872	150.12135	192.42180	280.38504	146.99915	57.45530	
69	0.680	277.13040	150.11963	192.42119	280.38235	146.99693	57.45641	
70	0.690	277.13318	150.11703	192.41908	280.38028	146.99522	57.45722	
71	0.700	277.13672	150.11377	192.41618	280.37949	146.99448	57.45750	
72	0.710	277.14044	150.11035	192.41306	280.37997	146.99466	57.45726	
